<svg width="65" height="65" viewBox="0 0 65 65" fill="none" xmlns="http://www.w3.org/2000/svg">
<g id="Group">
<path id="Vector" d="M59.5955 0.226562H5.05801C2.44551 0.226562 0.333008 2.28906 0.333008 4.83906V59.6016C0.333008 62.1516 2.44551 64.2266 5.05801 64.2266H59.5955C62.208 64.2266 64.333 62.1516 64.333 59.6141V4.83906C64.333 2.28906 62.208 0.226562 59.5955 0.226562ZM19.3205 54.7641H9.82051V24.2141H19.3205V54.7641ZM14.5705 20.0516C11.5205 20.0516 9.05801 17.5891 9.05801 14.5516C9.05801 11.5141 11.5205 9.05156 14.5705 9.05156C17.608 9.05156 20.0705 11.5141 20.0705 14.5516C20.0705 17.5766 17.608 20.0516 14.5705 20.0516ZM54.8705 54.7641H45.383V39.9141C45.383 36.3766 45.3205 31.8141 40.4455 31.8141C35.508 31.8141 34.758 35.6766 34.758 39.6641V54.7641H25.283V24.2141H34.383V28.3891H34.508C35.7705 25.9891 38.8705 23.4516 43.483 23.4516C53.0955 23.4516 54.8705 29.7766 54.8705 38.0016V54.7641Z" fill="white"/>
</g>
</svg>
