<svg width="106" height="70" viewBox="0 0 106 70" fill="none" xmlns="http://www.w3.org/2000/svg">
<path d="M102.915 8.55112C97.9436 5.26505 90.6095 9.55064 84.7747 13.6522C81.3333 16.075 78.1792 18.6795 76.3702 20.2258C75.7847 20.7262 75.0828 21.0782 74.3247 21.2147C72.7043 21.5191 71.1414 22.0699 69.69 22.8468C69.3321 23.0384 68.8887 22.9636 68.6107 22.6677C68.5105 22.561 68.4366 22.4299 68.4 22.2881C67.5879 19.1422 66.2454 16.1573 64.4298 13.462C61.133 8.542 54.6885 2.29997 42.7178 0.506323C30.5237 -1.31927 22.0262 2.70465 17.0461 6.40453C13.709 8.88506 11.4878 11.5152 10.2259 13.2581C9.54879 14.1934 8.70594 14.9963 7.82477 15.7425C6.25545 17.063 5.37499 18.8156 5.34458 20.6746C5.33678 21.2931 5.41805 21.9084 5.58505 22.5019C5.68665 22.8629 5.67362 23.2455 5.55595 23.6017C4.59391 26.348 3.88578 29.361 2.57258 31.9578C2.09886 32.8946 1.70392 33.894 1.38934 34.9538C0.319675 38.5009 0.447401 42.3017 1.75278 45.769C2.99972 49.1752 5.31568 52.4461 8.63376 55.4888C11.3976 57.9867 14.4625 60.1284 17.7569 61.8642C18.0319 62.0092 18.2719 62.2121 18.4679 62.4534C20.4538 64.9028 24.2312 68.0032 30.9464 68.8613C31.9197 68.9868 32.8999 69.0503 33.8813 69.0514C37.4569 69.0673 40.9725 68.1584 44.0887 66.4175C44.4193 66.2328 44.7942 66.1482 45.1707 66.1061C47.9705 65.7556 50.7333 65.1553 53.4263 64.3125C59.6762 62.3743 64.2717 59.5294 67.0864 55.8554C68.3346 54.2337 70.9144 53.7631 72.4318 55.1362C74.6727 57.164 77.0349 58.8254 79.4737 60.0771C83.9976 62.3971 87.7978 62.8855 90.1898 62.8839C91.4437 62.8972 92.6943 62.753 93.9123 62.4549C98.6264 61.2379 98.9929 58.0248 98.9929 57.0679C98.9929 53.7499 96.3241 52.154 93.9747 50.7452C91.3896 49.198 88.1734 47.2751 86.0673 43.026C84.336 39.4549 85.4368 34.7211 88.8439 32.686C91.0721 31.3551 93.249 29.8544 95.319 28.2113C97.9923 26.0921 104.335 20.6046 105.486 15.4595C106.114 12.6131 105.156 10.0329 102.915 8.55112Z" fill="white"/>
<path d="M17.6699 16.0481L13.1699 17.0481L14.1699 14.5473C20.1699 8.54733 26.0033 6.04786 28.1699 5.54812C29.8366 4.71479 35.8699 3.54812 46.6699 5.54812C57.4699 7.54812 62.8366 17.0481 64.1699 21.5481L63.6699 23.5481C60.0699 22.7481 58.1699 20.2148 57.6699 19.0481C57.1699 17.5481 55.4699 14.1481 52.6699 12.5481C49.8699 10.9481 45.1699 13.5481 43.1699 15.0481H39.6699L33.1699 14.0481L32.1699 12.5481L29.1699 10.0481H26.1699L21.6699 11.5481L17.6699 16.0481Z" fill="#5BDC58"/>
<path d="M5.67 35.5481C7.67 27.1481 18.17 26.3815 23.17 27.0481C25.0033 25.8816 30.5699 23.9484 38.1699 25.5484C45.7699 27.1484 49.6699 30.5484 50.6699 32.0484C56.6699 32.0484 66.1699 35.0484 66.1699 47.0484C66.1699 58.5593 49.5033 61.3817 44.1699 61.5484C42.5033 62.7151 37.5699 64.9484 31.1699 64.5484C24.7699 64.1484 20.8366 59.7151 19.67 57.5484C11.17 54.0484 3.17 46.0481 5.67 35.5481Z" fill="#5BDC58"/>
<path d="M10.1703 22.5481C9.33696 21.3815 8.67029 18.7481 12.6703 17.5481C17.6703 16.0481 17.67 16.5481 19.67 14.0481C21.67 11.5481 22.67 9.54812 27.67 10.0481C31.67 10.4481 33.0033 12.8815 33.17 14.0481C36.0033 14.7142 42.07 15.8464 43.67 15.0472C45.17 13.5472 49.07 11.0472 52.67 13.0472C57.17 15.5472 57.67 16.5472 57.67 20.5472L62.17 23.0472C63.8366 23.7138 67.17 25.7472 67.17 28.5472H68.67C70.0033 27.0472 73.77 24.1472 78.17 24.5472C83.8366 18.8805 96.37 8.54716 101.17 12.5472C107.17 17.5472 80.17 35.5472 73.67 34.5472C74.67 35.0472 77.37 37.0472 80.17 41.0472C83.67 46.0472 84.17 50.5472 92.67 54.5472C101.17 58.5472 87.17 61.5472 77.17 53.5472C67.17 45.5472 67.8366 42.2138 66.17 40.5472H64.67C63.5033 37.2138 59.07 30.9472 50.67 32.5472L48.67 30.5472C50.3366 30.3805 53.17 28.5472 53.67 26.0472C54.17 23.5472 56.17 20.5472 51.67 18.0472C50.17 17.2138 46.87 16.7472 45.67 21.5472C44.6031 25.8146 44.7746 27.2365 45.06 27.4996C45.0974 27.5156 45.1341 27.5315 45.17 27.5472C45.133 27.5472 45.0956 27.5324 45.06 27.4996C42.3194 26.3263 35.5892 24.3633 29.67 25.5472L28.67 24.5472C29.5033 23.7135 30.97 21.2464 30.17 18.0472C29.17 14.0481 27.67 13.0472 23.17 15.5472C18.67 18.0472 20.17 25.0472 23.17 26.0472L22.67 27.0472C20.6702 26.3805 15.3705 25.8472 10.1703 29.0472C9.67019 28.5472 8.76997 27.1472 9.16997 25.5472C9.56997 23.9472 10.0035 22.8811 10.1703 22.5481Z" fill="#9852F1"/>
<path d="M101.238 11.0904C98.6272 9.36369 93.8143 11.0159 86.5227 16.1427C83.1673 18.5345 79.941 21.1025 76.8574 23.8361C76.2492 23.9456 75.6059 24.0643 74.9049 24.2012C71.6264 24.8387 69.4838 26.3996 68.1805 27.7566C67.7118 26.3192 66.8468 25.0436 65.6851 24.0765C65.4525 22.8442 64.5796 19.1443 61.9048 15.1539C58.9486 10.742 53.1412 5.14199 42.2685 3.51264C31.1069 1.83918 23.3774 5.49038 18.8595 8.84492C13.9554 12.487 11.7124 16.5018 11.6257 16.6706C11.5787 16.7561 11.5439 16.8478 11.5223 16.943C10.8945 17.2383 10.3093 17.617 9.78267 18.0687C8.64978 19.0226 8.39735 20.0373 8.38671 20.7204C8.3715 21.7291 8.8429 22.5612 9.23979 23.0815C8.89387 23.5485 8.61919 24.0643 8.42472 24.612C7.74803 26.5334 8.31523 28.2723 8.69539 29.1106C6.61513 30.784 5.13097 33.0341 4.30677 35.8151C2.54129 41.7681 4.74929 47.7956 10.6935 53.2435C13.5074 55.7839 16.6567 57.9257 20.0532 59.6087C20.0969 59.6295 20.1421 59.6468 20.1885 59.6604C20.3801 59.9464 20.5946 60.2385 20.8348 60.5337C22.4695 62.5525 25.6188 65.1098 31.335 65.8401C32.1806 65.9497 33.0324 66.0051 33.8851 66.0059C37.3688 66.0284 40.7809 65.0172 43.6903 63.1002C43.8181 63.0165 43.9428 62.9313 44.0644 62.8461C44.2531 62.9997 44.4887 63.084 44.732 63.085C44.7705 63.0873 44.8091 63.0873 44.8475 63.085C47.4523 62.7531 50.023 62.1931 52.5299 61.4115C58.1655 59.6635 62.2515 57.1731 64.6754 54.0087C66.78 51.2612 67.5647 48.0633 67.0066 44.5019C66.961 44.2083 66.9078 43.9253 66.8545 43.6439C70.8508 49.9832 75.6516 54.6978 80.8659 57.3739C84.7421 59.3623 87.9704 59.8476 90.1951 59.846C91.1924 59.8578 92.1873 59.7464 93.1574 59.5144C94.9365 59.058 95.9569 58.165 95.9569 57.0727C95.9569 55.4798 94.4712 54.5914 92.4138 53.3606C89.6431 51.7023 85.8476 49.4325 83.3446 44.3847C80.7975 39.2472 77.8976 36.5347 75.8173 35.1366C88.4966 31.569 101.212 20.6718 102.517 14.8025C102.995 12.6239 101.921 11.5422 101.238 11.0904ZM68.3919 36.8922C68.3278 35.6435 68.0302 34.4179 67.5145 33.279C67.8591 32.7981 68.1131 32.2583 68.2642 31.6862C69.1097 32.0407 70.3338 32.9291 70.1924 35.0909C70.127 36.1087 69.8381 36.8222 69.3363 37.2101C69.0596 37.4127 68.7344 37.5387 68.3934 37.5753C68.4064 37.3473 68.4079 37.1188 68.398 36.8907L68.3919 36.8922ZM20.1216 10.5549C22.769 8.58283 25.7598 7.12033 28.9415 6.24192C32.9454 5.13591 37.3188 4.92595 41.9385 5.61816C50.0132 6.83522 56.1126 10.4088 60.0694 16.2675C61.3455 18.1599 62.345 20.2249 63.0377 22.4C62.8005 22.2874 62.5556 22.1763 62.2971 22.0698C60.3355 21.259 58.9425 18.621 58.9228 18.583C58.8604 18.4622 58.7752 18.3548 58.6719 18.2665C57.8507 14.7781 55.7203 12.4855 52.4889 11.6153C49.2955 10.7587 46.2542 11.5027 43.669 13.7679C39.3063 14.7948 34.8599 13.2385 33.619 12.7441C32.3188 10.1578 30.1413 8.78863 27.2946 8.75364H27.1668C22.5045 8.75364 20.4242 11.1878 18.7515 13.1381C18.0566 13.949 17.4012 14.7142 16.6591 15.1782C16.0105 15.5914 15.3007 15.8995 14.556 16.091C16.1353 13.9853 18.0121 12.1204 20.1277 10.5549H20.1216ZM10.4335 25.2981C10.9764 23.7874 12.5944 22.5597 15.2388 21.6469C15.5055 21.5547 15.7248 21.3602 15.8482 21.1063C15.9717 20.8524 15.9893 20.5598 15.8972 20.2929C15.805 20.0261 15.6107 19.8068 15.3569 19.6832C15.1031 19.5597 14.8106 19.5421 14.5439 19.6342C13.0151 20.1616 11.7555 20.8026 10.765 21.5572C10.6075 21.3191 10.5186 21.0422 10.508 20.7569C10.508 20.6261 10.5172 20.229 11.1452 19.692C12.2477 18.7655 13.0871 18.5845 14.15 18.3563C15.1734 18.1357 16.3321 17.8862 17.7996 16.9704C18.8184 16.3344 19.6122 15.4064 20.3847 14.5088C22.0027 12.6193 23.5279 10.8318 27.2915 10.8698C29.4205 10.8911 30.9153 11.8921 31.8535 13.9307C32.3201 14.99 32.5985 16.1226 32.6762 17.2776C32.6805 17.4175 32.7124 17.5552 32.7699 17.6827C32.8274 17.8103 32.9095 17.9252 33.0115 18.021C33.1134 18.1168 33.2333 18.1916 33.3641 18.241C33.495 18.2904 33.6343 18.3136 33.7741 18.3091C34.0562 18.3 34.3231 18.1791 34.5162 17.9732C34.7092 17.7672 34.8126 17.4929 34.8036 17.2107C34.769 16.5693 34.6795 15.9321 34.536 15.306C36.4907 15.9066 38.5221 16.2213 40.5669 16.2401C40.871 16.2401 41.1812 16.2315 41.4975 16.2142C41.0958 16.7745 40.7399 17.3662 40.4331 17.9835C40.3135 18.2388 40.3 18.5311 40.3955 18.7963C40.491 19.0615 40.6877 19.278 40.9425 19.3984C41.1974 19.5187 41.4897 19.5329 41.7551 19.4379C42.0205 19.343 42.2374 19.1465 42.3582 18.8918C43.0042 17.6408 43.8583 16.509 44.8841 15.5448C46.9871 13.6006 49.3654 12.9586 51.9536 13.6615C54.5007 14.3461 56.0928 16.1579 56.6844 19.0485C56.9678 20.524 57.0058 22.0363 56.7969 23.5242C56.7488 23.8024 56.8131 24.0883 56.9756 24.3191C57.1381 24.5499 57.3856 24.7067 57.6637 24.755C57.7243 24.7665 57.7859 24.7721 57.8477 24.7717C58.0982 24.7715 58.3406 24.6829 58.5322 24.5215C58.7239 24.3601 58.8525 24.1363 58.8954 23.8894C58.9785 23.3569 59.0292 22.8199 59.0475 22.2813C59.7404 23.0227 60.5757 23.6167 61.5033 24.0278C63.1639 24.7139 66.0045 26.3098 66.3558 29.319C66.4304 29.9361 66.3786 30.5619 66.2037 31.1583C65.0304 29.7518 63.5354 28.6491 61.8455 27.9437C61.5865 27.8317 61.2938 27.8271 61.0314 27.9309C60.7691 28.0348 60.5587 28.2385 60.4465 28.4975C60.3908 28.6258 60.361 28.7639 60.3587 28.9038C60.3563 29.0437 60.3816 29.1827 60.433 29.3128C60.4844 29.4429 60.561 29.5616 60.6582 29.6621C60.7555 29.7627 60.8717 29.843 61 29.8986C62.9252 30.7323 64.3698 31.9676 65.2578 33.5042C65.2869 33.5727 65.3231 33.638 65.3658 33.6989C65.9114 34.7195 66.2231 35.8487 66.2782 37.0048C66.3451 38.2462 65.9148 38.9992 65.4783 39.4389C63.5562 35.4469 60.4495 33.3536 57.8416 32.2765C55.6506 31.3817 53.3116 30.9049 50.9454 30.8708L50.9332 30.8571C52.9466 30.1238 53.9548 28.1887 54.414 26.9138C55.4785 23.9502 55.4633 21.4644 54.3608 19.5262C53.9252 18.7778 53.3371 18.1296 52.6347 17.6234C51.9324 17.1173 51.1314 16.7647 50.2839 16.5885C49.0674 16.3542 47.7839 16.7908 46.6556 17.8162C45.4893 18.8811 44.5404 20.4937 43.8363 22.6251C43.4572 23.7 43.2668 24.8323 43.2737 25.9721C41.0171 25.1769 38.6784 24.638 36.3014 24.3655C34.3135 24.1188 32.3026 24.1188 30.3146 24.3655C30.7818 23.3354 31.0688 22.2326 31.1631 21.1053C31.4019 18.8355 31.2665 17.1057 30.751 15.8172C30.1002 14.1893 28.9536 13.6082 28.1066 13.4074C27.171 13.2078 26.2041 13.2055 25.2675 13.4007C24.331 13.5958 23.4454 13.9841 22.6672 14.5408C20.9276 15.8233 19.9483 17.8877 19.7597 20.6763C19.6076 22.8503 20.146 24.5375 21.3442 25.6967C19.417 25.5931 17.4843 25.7197 15.587 26.074C13.8048 26.3997 12.0873 27.0132 10.5019 27.8905C10.2799 27.2911 10.0716 26.3159 10.4396 25.2981H10.4335ZM49.8627 25.9584C50.3387 23.8452 49.3092 21.8067 47.5695 21.4142C47.2656 21.3465 46.9524 21.3316 46.6435 21.37C47.7079 19.3162 48.9761 18.513 49.8688 18.6834C50.4145 18.8011 50.9299 19.0307 51.3824 19.3578C51.8349 19.6848 52.2148 20.1022 52.498 20.5835C53.2796 21.9527 53.2446 23.8452 52.3976 26.1972C51.692 28.1552 50.5972 29.0878 49.0446 29.0269C48.998 29.0238 48.9513 29.0238 48.9047 29.0269C48.6827 28.8555 48.4561 28.6881 48.2249 28.5249C49.0658 27.8968 49.6504 26.9849 49.8703 25.9584H49.8627ZM29.127 19.5049C28.6812 19.11 28.1227 18.8652 27.5303 18.8051C25.7557 18.6408 24.1453 20.2579 23.943 22.4137C23.8508 23.3117 24.0344 24.2165 24.4692 25.0075C23.8719 24.8878 23.3163 24.614 22.8573 24.2134C22.097 23.5121 21.7655 22.3711 21.8704 20.8239C22.0225 18.694 22.7052 17.1529 23.9187 16.2599C24.7331 15.6837 25.7088 15.3802 26.7061 15.3927C27.0076 15.3894 27.3086 15.42 27.6033 15.484C28.9278 15.7959 29.1787 17.7736 29.1331 19.5049H29.127ZM62.9784 52.7019C60.3081 56.1918 55.4952 58.2471 51.9277 59.3562C50.1895 59.894 48.4203 60.3259 46.6298 60.6493C47.0595 60.2123 47.4551 59.7428 47.8128 59.2451C47.9712 59.0121 48.0308 58.7259 47.9787 58.449C47.9265 58.1721 47.7668 57.9272 47.5346 57.7679C47.3036 57.6119 47.0207 57.5527 46.7466 57.603C46.4725 57.6534 46.2291 57.8092 46.0686 58.0372C46.0565 58.0539 44.8354 59.8034 42.4419 61.3674C39.2667 63.4425 35.6217 64.2351 31.6072 63.7224C22.1654 62.516 20.7451 56.0032 20.6904 55.7263C20.6359 55.45 20.4743 55.2066 20.2409 55.0492C20.0075 54.8918 19.7213 54.8333 19.4449 54.8865C19.1677 54.9396 18.9228 55.1006 18.7643 55.3343C18.6057 55.568 18.5464 55.8551 18.5995 56.1325C18.5995 56.1507 18.6253 56.2587 18.674 56.4367C16.32 55.0732 14.1143 53.4682 12.0926 51.6476C6.74439 46.7276 4.81164 41.6068 6.34598 36.4343C7.67352 31.9539 10.8973 29.1821 15.9261 28.1917C17.3578 27.9189 18.8134 27.792 20.2707 27.8129C17.3905 29.4863 15.7513 31.1324 15.6752 31.21C15.477 31.4107 15.3665 31.6818 15.368 31.9639C15.3694 32.246 15.4826 32.516 15.6828 32.7146C15.7817 32.8135 15.899 32.892 16.0282 32.9455C16.1573 32.999 16.2958 33.0265 16.4356 33.0265C16.5754 33.0265 16.7138 32.999 16.8429 32.9455C16.9721 32.892 17.0894 32.8135 17.1883 32.7146C17.2065 32.6964 19.1347 30.7764 22.4224 29.0634C26.7912 26.7814 31.3699 25.9249 36.0308 26.503C39.2242 26.8985 41.9385 27.6273 44.2423 28.7029L44.2651 28.7135C45.6667 29.3592 46.9751 30.1908 48.155 31.1857C48.6946 31.6459 49.2026 32.142 49.6756 32.6705L49.703 32.6994C51.1917 34.3637 52.3809 36.3993 53.4378 39.0616C53.5164 39.26 53.6528 39.4302 53.8293 39.5501C54.0059 39.6701 54.2143 39.7341 54.4277 39.734C54.5621 39.734 54.6953 39.7081 54.82 39.658C55.0824 39.5536 55.2926 39.3494 55.4044 39.09C55.5161 38.8307 55.5204 38.5375 55.4161 38.2751C54.7289 36.467 53.8376 34.7433 52.7595 33.1375C54.2455 33.32 55.6998 33.7033 57.0828 34.277C61.4592 36.1224 64.0869 39.6717 64.8944 44.8244C65.3628 47.7849 64.718 50.4305 62.9845 52.7019H62.9784ZM75.4006 37.4627C76.9837 38.698 79.3148 41.0652 81.4255 45.3219C84.2053 50.931 88.4814 53.4884 91.3098 55.1816C92.2222 55.7247 93.5512 56.5219 93.7809 56.9509C93.4053 57.2552 91.988 57.8287 89.4819 57.6903C86.1578 57.5062 82.4702 56.1416 79.0989 53.8474C74.7027 50.855 70.7702 46.3457 67.4065 40.4384C67.5751 40.2134 67.7236 39.9742 67.8506 39.7234C67.916 39.7234 67.9859 39.7234 68.0589 39.7234C68.9753 39.7385 69.8714 39.4532 70.6106 38.911C71.4849 38.2477 72.0309 37.2375 72.2392 35.9231L72.6543 35.8516C73.0695 36.0037 74.0944 36.4343 75.4067 37.4627H75.4006ZM100.426 14.3278C99.9228 16.5824 96.6427 20.8802 90.4506 25.4031C84.5337 29.7252 77.9614 32.7374 72.2635 33.7704C71.9214 31.461 70.3779 30.3352 69.207 29.8058C70.162 28.6329 72.0521 26.932 75.3048 26.2992C76.8909 25.9949 78.2093 25.7652 79.3726 25.5674C82.4459 25.041 84.3011 24.7246 86.3676 23.6672C86.6187 23.5388 86.8086 23.3159 86.8956 23.0475C86.9825 22.779 86.9595 22.4871 86.8314 22.2357C86.768 22.111 86.6806 22 86.5742 21.9091C86.4679 21.8182 86.3447 21.7491 86.2116 21.7059C86.0786 21.6627 85.9384 21.6461 85.7989 21.6571C85.6595 21.6681 85.5236 21.7065 85.399 21.7701C84.0502 22.4608 82.7804 22.7879 80.9495 23.1272C82.7089 21.6621 85.1541 19.7087 87.7514 17.8832C96.4496 11.7704 99.2522 12.344 100.055 12.8749C100.245 12.9875 100.669 13.2674 100.432 14.3278H100.426Z" fill="black"/>
<path d="M35.6699 58.0481C30.8699 58.8481 27.6699 57.0481 26.6699 56.0481C27.1699 55.2148 29.1699 53.3481 33.1699 52.5481C37.1699 51.7481 42.5033 53.2148 44.6699 54.0481C43.6699 55.0481 40.4699 57.2481 35.6699 58.0481Z" fill="#F93C69"/>
<path d="M56.3348 43.853L55.9547 44.8479L55.5593 45.8368C55.9161 46.0088 56.2343 46.2516 56.4945 46.5503C54.5798 47.6138 52.5622 48.4803 50.4727 49.1365C44.6781 50.961 38.5468 51.455 32.535 50.5818C24.877 49.4986 19.5395 46.1699 16.416 43.5639C13.4431 41.0917 11.8404 38.7854 11.4709 38.221C11.9912 37.871 12.575 37.626 13.1892 37.4999C13.4648 37.4391 13.7051 37.2713 13.857 37.0334C14.009 36.7954 14.0604 36.5069 13.9997 36.2311C13.9696 36.0944 13.9129 35.965 13.8328 35.8502C13.7527 35.7355 13.6508 35.6376 13.5329 35.5623C13.4149 35.487 13.2833 35.4357 13.1455 35.4113C13.0078 35.3869 12.8666 35.3899 12.73 35.4202C8.79298 36.2904 7.67529 39.5689 7.63423 41.1815C7.63019 41.3216 7.65382 41.4611 7.7038 41.5921C7.75377 41.723 7.82909 41.8428 7.92545 41.9446C8.0218 42.0464 8.13728 42.1281 8.26527 42.1851C8.39327 42.2421 8.53126 42.2733 8.67132 42.2769H8.69869C8.97582 42.277 9.24206 42.1689 9.44083 41.9758C9.63961 41.7826 9.75524 41.5195 9.76316 41.2423C9.80225 40.8003 9.90999 40.3671 10.0825 39.9584C11.4964 41.8802 13.1414 43.6205 14.9805 45.14C16.2918 46.2387 17.687 47.2331 19.1532 48.1142C19.5477 49.7603 20.2253 51.3253 21.1559 52.7391C22.7435 55.1549 25.8274 58.2158 31.4964 59.0632C32.3938 59.199 33.3001 59.2677 34.2077 59.2686C37.6297 59.2778 40.9684 58.2137 43.7544 56.2259C46.4369 54.3227 47.7857 52.2172 47.842 52.1275C47.8572 52.1031 47.8709 52.0788 47.8845 52.0545C49.1224 51.7684 50.2385 51.4459 51.2133 51.1417C53.3902 50.4517 55.493 49.5466 57.4905 48.4398C57.6521 49.0793 57.7233 49.7384 57.7019 50.3977C57.6989 50.5376 57.7234 50.6767 57.7742 50.807C57.8249 50.9374 57.9008 51.0565 57.9975 51.1575C58.0942 51.2585 58.2099 51.3395 58.3379 51.3957C58.4659 51.452 58.6038 51.4825 58.7436 51.4855H58.7664C59.0445 51.4855 59.3117 51.3767 59.5106 51.1822C59.7095 50.9877 59.8245 50.7231 59.8308 50.4449C59.9388 45.2952 56.4824 43.9108 56.3348 43.853ZM31.8142 56.9562C30.6687 56.7915 29.5461 56.4949 28.4688 56.0723C29.1862 55.7031 29.9386 55.4065 30.7148 55.1869C32.8711 54.5555 36.6013 53.9698 42.5288 54.4734C40.1596 56.1559 36.5876 57.6712 31.8142 56.9562Z" fill="black"/>
</svg>
