<svg width="430" height="423" viewBox="0 0 430 423" fill="none" xmlns="http://www.w3.org/2000/svg">
<path d="M422.288 142.477C422.636 141.732 422.337 140.78 421.62 140.35L409.949 133.341C409.232 132.911 408.37 133.165 408.023 133.91C407.676 134.654 407.975 135.606 408.691 136.036L419.066 142.267L414.035 153.048C413.687 153.792 413.987 154.744 414.703 155.174C415.419 155.604 416.281 155.35 416.628 154.605L422.288 142.477ZM260.098 34.0036C259.856 33.168 259.045 32.6543 258.287 32.8562C257.528 33.058 257.11 33.8991 257.353 34.7347L260.098 34.0036ZM258.726 34.3691C257.353 34.7347 257.353 34.7347 257.353 34.7348C257.353 34.7348 257.353 34.7349 257.353 34.735C257.353 34.7351 257.353 34.7352 257.353 34.7353C257.353 34.7356 257.353 34.736 257.353 34.7364C257.354 34.7372 257.354 34.7383 257.354 34.7396C257.355 34.7423 257.356 34.746 257.357 34.7507C257.36 34.7601 257.364 34.7736 257.369 34.7911C257.38 34.826 257.395 34.877 257.415 34.9436C257.455 35.0767 257.514 35.2723 257.593 35.5273C257.752 36.0371 257.99 36.7843 258.31 37.7435L261.014 36.8803C260.702 35.945 260.472 35.2208 260.32 34.7329C260.244 34.4889 260.188 34.3041 260.151 34.1815C260.133 34.1202 260.119 34.0745 260.11 34.0447C260.106 34.0298 260.103 34.0189 260.101 34.012C260.1 34.0086 260.099 34.0062 260.099 34.0048C260.098 34.0041 260.098 34.0036 260.098 34.0034C260.098 34.0033 260.098 34.0033 260.098 34.0033C260.098 34.0033 260.098 34.0034 260.098 34.0034C260.098 34.0034 260.098 34.0035 260.098 34.0035C260.098 34.0036 260.098 34.0036 258.726 34.3691ZM260.463 43.8019C261.124 45.5618 261.894 47.5387 262.778 49.6968L265.401 48.6141C264.531 46.4901 263.773 44.5457 263.124 42.8166L260.463 43.8019ZM265.284 55.5764C266.106 57.4316 266.996 59.3742 267.956 61.3884L270.5 60.1268C269.554 58.1431 268.678 56.2299 267.869 54.4029L265.284 55.5764ZM270.78 67.1089C271.718 68.9443 272.709 70.8221 273.754 72.7324L276.209 71.2964C275.18 69.4161 274.204 67.5674 273.28 65.7602L270.78 67.1089ZM276.884 78.2604C277.934 80.0524 279.03 81.8636 280.173 83.6863L282.523 82.0719C281.399 80.28 280.321 78.4988 279.289 76.736L276.884 78.2604ZM283.627 89.0043C284.791 90.736 285.998 92.4715 287.249 94.2043L289.473 92.4041C288.246 90.7033 287.061 88.9992 285.917 87.298L283.627 89.0043ZM291.043 99.2738C292.325 100.925 293.648 102.569 295.013 104.198L297.087 102.204C295.75 100.608 294.453 98.997 293.196 97.3776L291.043 99.2738ZM299.161 108.96C300.561 110.506 302.001 112.033 303.481 113.537L305.374 111.343C303.927 109.873 302.518 108.379 301.148 106.867L299.161 108.96ZM307.97 117.905C309.487 119.318 311.043 120.704 312.638 122.059L314.316 119.665C312.76 118.344 311.241 116.991 309.76 115.611L307.97 117.905ZM317.482 125.977C319.116 127.234 320.788 128.457 322.498 129.64L323.925 127.054C322.26 125.902 320.631 124.711 319.039 123.485L317.482 125.977ZM327.652 133.012C329.382 134.079 331.149 135.106 332.953 136.088L334.098 133.329C332.344 132.374 330.625 131.375 328.942 130.336L327.652 133.012ZM338.396 138.858C340.217 139.721 342.073 140.539 343.966 141.306L344.804 138.401C342.965 137.655 341.16 136.861 339.39 136.022L338.396 138.858ZM349.594 143.403C351.469 144.041 353.377 144.63 355.318 145.167L355.841 142.154C353.953 141.632 352.098 141.059 350.275 140.439L349.594 143.403ZM361.138 146.597C363.037 147.006 364.967 147.365 366.926 147.672L367.136 144.592C365.228 144.293 363.35 143.943 361.501 143.545L361.138 146.597ZM372.769 148.422C374.702 148.616 376.661 148.76 378.649 148.851L378.562 145.741C376.623 145.652 374.712 145.512 372.829 145.323L372.769 148.422ZM384.44 148.967C386.366 148.956 388.316 148.896 390.291 148.786L389.935 145.677C388.003 145.785 386.097 145.843 384.217 145.854L384.44 148.967ZM396.031 148.329C397.924 148.133 399.839 147.892 401.777 147.603L401.181 144.518C399.282 144.802 397.406 145.038 395.552 145.229L396.031 148.329ZM407.451 146.632C409.305 146.274 411.179 145.873 413.072 145.428L412.268 142.384C410.407 142.821 408.567 143.215 406.747 143.566L407.451 146.632ZM418.639 144.008C419.576 143.75 420.517 143.481 421.464 143.201L420.519 140.194C419.588 140.469 418.661 140.734 417.739 140.987L418.639 144.008Z" fill="url(#paint0_linear_784_72788)"/>
<path d="M108.272 416.815C107.556 416.498 107.256 415.593 107.603 414.794L113.257 401.777C113.604 400.978 114.466 400.588 115.183 400.906C115.899 401.224 116.199 402.129 115.852 402.927L110.826 414.498L121.203 419.1C121.919 419.417 122.219 420.322 121.872 421.121C121.525 421.92 120.663 422.31 119.947 421.992L108.272 416.815ZM241.132 3.01078C240.857 2.22759 241.24 1.30542 241.987 0.951049C242.734 0.59668 243.562 0.944308 243.837 1.7275L241.132 3.01078ZM108.427 413.94C205.264 370.127 251.245 304.292 266.695 231.129C282.174 157.822 267.053 76.9059 241.132 3.01078L243.837 1.7275C269.832 75.8324 285.17 157.417 269.503 231.609C253.806 305.946 207.037 372.611 109.373 416.799L108.427 413.94Z" fill="url(#paint1_linear_784_72788)"/>
<defs>
<linearGradient id="paint0_linear_784_72788" x1="399.21" y1="135.738" x2="242.662" y2="77.6956" gradientUnits="userSpaceOnUse">
<stop stop-color="#BFF0FF"/>
<stop offset="1" stop-color="#82B4FF"/>
</linearGradient>
<linearGradient id="paint1_linear_784_72788" x1="83.4119" y1="254.808" x2="305.544" y2="172.449" gradientUnits="userSpaceOnUse">
<stop stop-color="#BFF0FF"/>
<stop offset="1" stop-color="#82B4FF"/>
</linearGradient>
</defs>
</svg>
